PathFileType	4	(X/Y/Z)	C:\Users\86182\Documents\cortex\Trimmed_M4_H2.trc
DataRate	CameraRate	NumFrames	NumMarkers	Units	OrigDataRate	OrigDataStartFrame	OrigNumFrames
100.00	100.00	       98	2	mm	100.00	541	       901
Frame#	Time	gripper			box			
		X1	Y1	Z1	X2	Y2	Z2	

541	5.400	275.79669	151.00801	292.40643	278.38409	147.57634	156.35159	
542	5.410	275.78284	151.00905	292.41400	278.37506	147.57590	156.36087	
543	5.420	275.76965	151.00990	292.42145	278.36652	147.57430	156.36972	
544	5.430	275.75903	151.01050	292.42755	278.35968	147.57204	156.37695	
545	5.440	275.75275	151.01074	292.43134	278.35602	147.56961	156.38153	
546	5.450	275.75217	151.01048	292.43207	278.35684	147.56723	156.38260	
547	5.460	275.75793	151.00960	292.42963	278.36279	147.56500	156.37982	
548	5.470	275.76953	151.00807	292.42426	278.37378	147.56294	156.37357	
549	5.480	275.78525	151.00603	292.41690	278.38901	147.56110	156.36490	
550	5.490	275.80273	151.00372	292.40881	278.40704	147.55965	156.35522	
551	5.500	275.81946	151.00143	292.40121	278.42596	147.55890	156.34576	
552	5.510	275.83313	150.99954	292.39502	278.44339	147.55917	156.33755	
553	5.520	275.84204	150.99832	292.39099	278.45627	147.56059	156.33167	
554	5.530	275.84512	150.99796	292.38953	278.46188	147.56273	156.32901	
555	5.540	275.84207	150.99847	292.39075	278.45871	147.56491	156.33026	
556	5.550	275.83319	150.99983	292.39459	278.44687	147.56656	156.33560	
557	5.560	275.81940	151.00186	292.40063	278.42789	147.56749	156.34447	
558	5.570	275.80243	151.00429	292.40817	278.40488	147.56776	156.35562	
559	5.580	275.78439	151.00687	292.41620	278.38159	147.56752	156.36749	
560	5.590	275.76733	151.00935	292.42374	278.36136	147.56699	156.37842	
561	5.600	275.75299	151.01151	292.42999	278.34665	147.56639	156.38684	
562	5.610	275.74292	151.01311	292.43420	278.33911	147.56595	156.39148	
563	5.620	275.73849	151.01399	292.43582	278.33923	147.56586	156.39157	
564	5.630	275.74048	151.01405	292.43442	278.34616	147.56615	156.38722	
565	5.640	275.74878	151.01332	292.43005	278.35788	147.56679	156.37943	
566	5.650	275.76245	151.01187	292.42322	278.37219	147.56763	156.36960	
567	5.660	275.77963	151.00983	292.41492	278.38708	147.56845	156.35919	
568	5.670	275.79785	151.00746	292.40643	278.40103	147.56908	156.34959	
569	5.680	275.81427	151.00507	292.39917	278.41269	147.56927	156.34201	
570	5.690	275.82657	151.00291	292.39432	278.42108	147.56865	156.33765	
571	5.700	275.83301	151.00127	292.39255	278.42554	147.56686	156.33734	
572	5.710	275.83279	151.00031	292.39410	278.42578	147.56395	156.34125	
573	5.720	275.82642	151.00012	292.39862	278.42194	147.56052	156.34839	
574	5.730	275.81567	151.00061	292.40497	278.41464	147.55746	156.35724	
575	5.740	275.80304	151.00162	292.41177	278.40515	147.55557	156.36594	
576	5.750	275.79071	151.00301	292.41785	278.39496	147.55513	156.37314	
577	5.760	275.78000	151.00468	292.42239	278.38556	147.55600	156.37793	
578	5.770	275.77167	151.00652	292.42517	278.37805	147.55789	156.37988	
579	5.780	275.76608	151.00835	292.42609	278.37286	147.56055	156.37903	
580	5.790	275.76340	151.00993	292.42548	278.36978	147.56374	156.37587	
581	5.800	275.76328	151.01108	292.42383	278.36844	147.56732	156.37125	
582	5.810	275.76520	151.01173	292.42160	278.36871	147.57104	156.36609	
583	5.820	275.76825	151.01193	292.41931	278.37085	147.57455	156.36148	
584	5.830	275.77121	151.01181	292.41751	278.37500	147.57744	156.35831	
585	5.840	275.77313	151.01151	292.41669	278.38107	147.57913	156.35709	
586	5.850	275.77402	151.01102	292.41684	278.38831	147.57919	156.35776	
587	5.860	275.77463	151.01022	292.41760	278.39560	147.57736	156.35979	
588	5.870	275.77576	151.00912	292.41852	278.40179	147.57387	156.36237	
589	5.880	275.77774	151.00781	292.41919	278.40637	147.56932	156.36472	
590	5.890	275.78036	151.00647	292.41949	278.40933	147.56453	156.36642	
591	5.900	275.78317	151.00529	292.41937	278.41110	147.56042	156.36728	
592	5.910	275.78568	151.00446	292.41901	278.41202	147.55772	156.36734	
593	5.920	275.78745	151.00401	292.41849	278.41245	147.55678	156.36661	
594	5.930	275.78845	151.00395	292.41791	278.41241	147.55765	156.36513	
595	5.940	275.78891	151.00417	292.41730	278.41174	147.56020	156.36298	
596	5.950	275.78915	151.00453	292.41656	278.41013	147.56412	156.36043	
597	5.960	275.78949	151.00497	292.41568	278.40750	147.56888	156.35782	
598	5.970	275.79007	151.00542	292.41467	278.40411	147.57368	156.35538	
599	5.980	275.79083	151.00574	292.41364	278.40009	147.57764	156.35342	
600	5.990	275.79135	151.00601	292.41290	278.39523	147.58014	156.35245	
601	6.000	275.79053	151.00633	292.41296	278.38953	147.58099	156.35287	
602	6.010	275.78745	151.00687	292.41422	278.38348	147.58035	156.35484	
603	6.020	275.78204	151.00752	292.41675	278.37845	147.57841	156.35818	
604	6.030	275.77536	151.00816	292.42023	278.37576	147.57556	156.36230	
605	6.040	275.76898	151.00856	292.42383	278.37619	147.57239	156.36642	
606	6.050	275.76456	151.00859	292.42670	278.37952	147.56966	156.36972	
607	6.060	275.76303	151.00821	292.42825	278.38510	147.56802	156.37180	
608	6.070	275.76471	151.00751	292.42822	278.39212	147.56786	156.37241	
609	6.080	275.76929	151.00661	292.42657	278.39966	147.56915	156.37155	
610	6.090	275.77609	151.00562	292.42365	278.40714	147.57149	156.36914	
611	6.100	275.78391	151.00475	292.41995	278.41403	147.57439	156.36520	
612	6.110	275.79147	151.00415	292.41605	278.41971	147.57747	156.36008	
613	6.120	275.79752	151.00397	292.41260	278.42337	147.58046	156.35431	
614	6.130	275.80087	151.00423	292.41022	278.42450	147.58322	156.34869	
615	6.140	275.80063	151.00497	292.40948	278.42316	147.58562	156.34421	
616	6.150	275.79630	151.00615	292.41071	278.41953	147.58737	156.34192	
617	6.160	275.78802	151.00766	292.41376	278.41360	147.58797	156.34241	
618	6.170	275.77676	151.00934	292.41846	278.40570	147.58710	156.34547	
619	6.180	275.76422	151.01094	292.42404	278.39676	147.58482	156.35040	
620	6.190	275.75253	151.01221	292.42963	278.38803	147.58147	156.35632	
621	6.200	275.74359	151.01292	292.43420	278.38062	147.57745	156.36234	
622	6.210	275.73895	151.01300	292.43701	278.37552	147.57338	156.36755	
623	6.220	275.73959	151.01234	292.43747	278.37347	147.56992	156.37125	
624	6.230	275.74588	151.01096	292.43536	278.37466	147.56752	156.37296	
625	6.240	275.75723	151.00893	292.43097	278.37915	147.56636	156.37268	
626	6.250	275.77213	151.00642	292.42496	278.38684	147.56633	156.37070	
627	6.260	275.78894	151.00369	292.41812	278.39743	147.56725	156.36743	
628	6.270	275.80621	151.00092	292.41119	278.41006	147.56894	156.36328	
629	6.280	275.82245	150.99828	292.40485	278.42322	147.57123	156.35875	
630	6.290	275.83591	150.99602	292.39984	278.43491	147.57399	156.35449	
631	6.300	275.84528	150.99429	292.39679	278.44330	147.57697	156.35109	
632	6.310	275.84985	150.99323	292.39578	278.44702	147.57971	156.34912	
633	6.320	275.84930	150.99284	292.39691	278.44528	147.58156	156.34900	
634	6.330	275.84344	150.99318	292.40009	278.43826	147.58194	156.35086	
635	6.340	275.83273	150.99425	292.40509	278.42715	147.58083	156.35440	
636	6.350	275.81824	150.99605	292.41144	278.41397	147.57881	156.35883	
637	6.360	275.80173	150.99841	292.41827	278.40106	147.57686	156.36322	
638	6.370	275.78543	151.00096	292.42480	278.39050	147.57578	156.36688	
